<svg width="15" height="14" viewBox="0 0 15 14" fill="none" xmlns="http://www.w3.org/2000/svg">
<path d="M4 2.33398H8.66667C9.2855 2.33398 9.879 2.57982 10.3166 3.0174C10.7542 3.45499 11 4.04848 11 4.66732C11 5.28616 10.7542 5.87965 10.3166 6.31723C9.879 6.75482 9.2855 7.00065 8.66667 7.00065H4V2.33398Z" stroke="white" stroke-width="2" stroke-linecap="round" stroke-linejoin="round"/>
<path d="M4 7H9.25C9.86884 7 10.4623 7.24583 10.8999 7.68342C11.3375 8.121 11.5833 8.71449 11.5833 9.33333C11.5833 9.95217 11.3375 10.5457 10.8999 10.9832C10.4623 11.4208 9.86884 11.6667 9.25 11.6667H4V7Z" stroke="white" stroke-width="2" stroke-linecap="round" stroke-linejoin="round"/>
</svg>
