<svg width="61" height="60" viewBox="0 0 61 60" fill="none" xmlns="http://www.w3.org/2000/svg">
<path fill-rule="evenodd" clip-rule="evenodd" d="M43.8335 5.26573L41.8189 3.07378C41.6152 2.85215 41.3388 2.72754 41.0506 2.72754C40.7624 2.72754 40.486 2.85215 40.2822 3.07378L35.8573 7.8882L35.7548 7.77669C35.5511 7.55506 35.2746 7.43045 34.9864 7.43045C34.6983 7.43045 34.422 7.55506 34.2181 7.77669L33.3169 8.75722L33.2403 8.67387C32.6104 7.98835 31.7729 7.61105 30.8822 7.61105C29.9914 7.61105 29.1538 7.98847 28.524 8.67376L22.3226 15.4209C21.8983 15.8826 21.8983 16.6312 22.3226 17.093C22.5348 17.3238 22.8129 17.4393 23.091 17.4393C23.369 17.4393 23.6471 17.3238 23.8593 17.093L30.0607 10.3458C30.2801 10.107 30.5718 9.9756 30.8823 9.9756C31.1925 9.9756 31.4842 10.107 31.7039 10.3458L31.7805 10.4292L8.61809 35.6299C8.51688 35.7402 8.43676 35.8708 8.38222 36.0147L5.73869 42.9779C5.571 43.4193 5.66401 43.9274 5.97457 44.2653C6.18242 44.4914 6.46038 44.6114 6.74324 44.6114C6.88291 44.6114 7.02364 44.5822 7.15778 44.5218L13.5577 41.6456C13.6899 41.5863 13.81 41.499 13.9113 41.389L39.5112 13.5358C39.9356 13.0741 39.9356 12.3255 39.5112 11.8637L39.4086 11.7521L43.8335 6.93769C44.2578 6.47612 44.2578 5.72754 43.8335 5.26573ZM12.5285 39.5515L8.74663 41.251L10.3087 37.1363L34.9869 10.286L37.2067 12.7012L12.5285 39.5515ZM37.3941 9.5608L37.872 10.0808L41.5285 6.10247L41.0506 5.58247L37.3941 9.5608ZM55.5732 16.0731C55.9059 15.825 56.3373 15.798 56.6938 16.0024C57.0505 16.207 57.2738 16.6096 57.2739 17.0483V56.0905C57.2739 56.7434 56.7874 57.2728 56.1874 57.2728H3.8132C3.33698 57.2728 2.91615 56.9353 2.7752 56.4403C2.63447 55.9454 2.8062 55.4082 3.19901 55.1154L55.5732 16.0731ZM50.1982 53.8184V54.9104H55.1087V19.2935L7.32966 54.9104H14.6963V53.8184C14.6963 53.1655 15.1829 52.6361 15.7829 52.6361C16.3829 52.6361 16.8695 53.1655 16.8695 53.8184V54.9104H25.8059V53.8184C25.8059 53.1655 26.2925 52.6361 26.8925 52.6361C27.4925 52.6361 27.9791 53.1655 27.9791 53.8184V54.9104H36.9155V53.8184C36.9155 53.1655 37.402 52.6361 38.002 52.6361C38.6021 52.6361 39.0886 53.1655 39.0886 53.8184V54.9104H48.025V53.8184C48.025 53.1655 48.5116 52.6361 49.1116 52.6361C49.7116 52.6361 50.1982 53.1655 50.1982 53.8184ZM49.6113 30.5658C49.2545 30.3615 48.8232 30.3884 48.4904 30.6365L25.987 47.4117C25.5942 47.7046 25.4225 48.2417 25.5632 48.7367C25.7039 49.2316 26.1249 49.5691 26.6011 49.5691H49.1046C49.7046 49.5691 50.1912 49.0397 50.1912 48.3869V31.6118C50.1912 31.1731 49.968 30.7705 49.6113 30.5658ZM48.025 47.2066H30.1166L48.025 33.8569V47.2066Z" fill="#FF1053"/>
</svg>
