<svg width="15" height="14" viewBox="0 0 15 14" fill="none" xmlns="http://www.w3.org/2000/svg">
<g clip-path="url(#clip0)">
<path d="M10.418 1.16602H4.58464C2.9738 1.16602 1.66797 2.47185 1.66797 4.08268V9.91602C1.66797 11.5268 2.9738 12.8327 4.58464 12.8327H10.418C12.0288 12.8327 13.3346 11.5268 13.3346 9.91602V4.08268C13.3346 2.47185 12.0288 1.16602 10.418 1.16602Z" fill="white" stroke="#262626" stroke-width="2" stroke-linecap="round" stroke-linejoin="round"/>
<path d="M9.83284 6.6317C9.90483 7.11718 9.8219 7.61299 9.59586 8.04863C9.36982 8.48426 9.01217 8.83752 8.57379 9.05818C8.1354 9.27883 7.6386 9.35563 7.15405 9.27766C6.66949 9.19969 6.22186 8.97091 5.87483 8.62388C5.52779 8.27684 5.29901 7.82921 5.22104 7.34466C5.14307 6.86011 5.21988 6.3633 5.44053 5.92492C5.66118 5.48653 6.01445 5.12888 6.45008 4.90284C6.88571 4.6768 7.38153 4.59388 7.867 4.66587C8.36221 4.7393 8.82067 4.97005 9.17466 5.32404C9.52865 5.67804 9.75941 6.13649 9.83284 6.6317Z" fill="white" stroke="#262626" stroke-width="2" stroke-linecap="round" stroke-linejoin="round"/>
<path d="M10.707 3.79102H10.7129" stroke="#262626" stroke-width="2" stroke-linecap="round" stroke-linejoin="round"/>
</g>
<defs>
<clipPath id="clip0">
<rect width="14" height="14" fill="white" transform="translate(0.5)"/>
</clipPath>
</defs>
</svg>
