<svg width="15" height="14" viewBox="0 0 15 14" fill="none" xmlns="http://www.w3.org/2000/svg">
<path d="M9.83203 4.66602C10.7603 4.66602 11.6505 5.03476 12.3069 5.69114C12.9633 6.34752 13.332 7.23776 13.332 8.16602V12.2493H10.9987V8.16602C10.9987 7.8566 10.8758 7.55985 10.657 7.34106C10.4382 7.12227 10.1415 6.99935 9.83203 6.99935C9.52261 6.99935 9.22587 7.12227 9.00707 7.34106C8.78828 7.55985 8.66536 7.8566 8.66536 8.16602V12.2493H6.33203V8.16602C6.33203 7.23776 6.70078 6.34752 7.35716 5.69114C8.01354 5.03476 8.90377 4.66602 9.83203 4.66602V4.66602Z" fill="white"/>
<path d="M4.0013 5.25H1.66797V12.25H4.0013V5.25Z" fill="white"/>
<path d="M2.83464 3.49935C3.47897 3.49935 4.0013 2.97701 4.0013 2.33268C4.0013 1.68835 3.47897 1.16602 2.83464 1.16602C2.1903 1.16602 1.66797 1.68835 1.66797 2.33268C1.66797 2.97701 2.1903 3.49935 2.83464 3.49935Z" fill="white"/>
</svg>
