<svg width="120" height="120" viewBox="0 0 120 120" fill="none" xmlns="http://www.w3.org/2000/svg">
<rect width="120" height="120" fill="white"/>
<path d="M51.8098 59.9296V80.5115C49.2385 82.4114 46.492 83.807 43.5701 84.6982C40.6716 85.5661 37.5627 86 34.2435 86C30.1061 86 26.3544 85.355 22.9885 84.065C19.6458 82.7749 16.7824 80.9806 14.3982 78.682C12.0373 76.3834 10.2141 73.6392 8.92843 70.4493C7.64281 67.2594 7 63.7763 7 60C7 56.1768 7.61944 52.6703 8.85831 49.4804C10.0972 46.2905 11.8503 43.5462 14.1177 41.2476C16.4084 38.949 19.1783 37.1664 22.4275 35.8999C25.6766 34.6333 29.3231 34 33.3669 34C35.4239 34 37.3407 34.1642 39.1172 34.4926C40.917 34.8209 42.5767 35.2783 44.096 35.8647C45.6388 36.4276 47.0413 37.1195 48.3035 37.9405C49.5658 38.7614 50.7228 39.6644 51.7747 40.6495L49.0749 44.9418C48.6541 45.622 48.1048 46.0442 47.427 46.2084C46.7491 46.3491 46.0128 46.1732 45.218 45.6806C44.4467 45.235 43.6753 44.7894 42.9039 44.3437C42.1325 43.8981 41.2677 43.511 40.3093 43.1827C39.3743 42.8543 38.3107 42.5846 37.1186 42.3735C35.9499 42.1624 34.5941 42.0568 33.0514 42.0568C30.5503 42.0568 28.2829 42.479 26.2493 43.3234C24.239 44.1678 22.521 45.3757 21.0951 46.9472C19.6692 48.5187 18.5706 50.4069 17.7992 52.6116C17.0278 54.8164 16.6422 57.2792 16.6422 60C16.6422 62.9084 17.0512 65.512 17.8693 67.8106C18.7108 70.0857 19.8796 72.0208 21.3756 73.6157C22.895 75.1872 24.7182 76.3951 26.8453 77.2395C28.9724 78.0604 31.345 78.4709 33.963 78.4709C35.833 78.4709 37.5043 78.2715 38.9769 77.8728C40.4495 77.4741 41.8871 76.9346 43.2896 76.2544V67.0365H36.9082C36.3005 67.0365 35.8213 66.8724 35.4707 66.544C35.1434 66.1922 34.9798 65.77 34.9798 65.2774V59.9296H51.8098Z" fill="#262626"/>
<path d="M92.8773 65.0312H79.273V79.5265H72.2255V65.0312H58.6914V58.5928H72.2255V44.1679H79.273V58.5928H92.8773V65.0312Z" fill="#FF1053"/>
<path d="M112 85.4372H102.533V34.563H112V85.4372Z" fill="#FF1053"/>
</svg>
