<svg width="133" height="38" viewBox="0 0 133 38" fill="none" xmlns="http://www.w3.org/2000/svg">
<path d="M25.712 8.36V31H24.288V11.704C24.288 11.4267 24.304 11.1333 24.336 10.824L15.424 26.648C15.2747 26.9253 15.0613 27.064 14.784 27.064H14.528C14.2507 27.064 14.0373 26.9253 13.888 26.648L4.736 10.792C4.768 11.112 4.784 11.416 4.784 11.704V31H3.344V8.36H4.48C4.62933 8.36 4.74667 8.376 4.832 8.408C4.91733 8.44 5.00267 8.52533 5.088 8.664L14.224 24.408C14.384 24.7067 14.5227 25.0267 14.64 25.368C14.704 25.1973 14.7733 25.032 14.848 24.872C14.9227 24.7013 15.0027 24.5413 15.088 24.392L23.968 8.664C24.0533 8.52533 24.1387 8.44 24.224 8.408C24.32 8.376 24.4427 8.36 24.592 8.36H25.712ZM44.9145 22.776L40.3065 11.336C40.1465 10.9627 39.9918 10.5147 39.8425 9.992C39.7785 10.248 39.7092 10.4933 39.6345 10.728C39.5598 10.952 39.4798 11.16 39.3945 11.352L34.7865 22.776H44.9145ZM49.9225 31H48.6585C48.5092 31 48.3865 30.9627 48.2905 30.888C48.1945 30.8027 48.1198 30.696 48.0665 30.568L45.4105 23.992H34.2905L31.6345 30.568C31.5918 30.6853 31.5172 30.7867 31.4105 30.872C31.3038 30.9573 31.1758 31 31.0265 31H29.7785L39.0425 8.36H40.6585L49.9225 31ZM64.9672 11.112C64.8712 11.2933 64.7326 11.384 64.5512 11.384C64.4126 11.384 64.2312 11.288 64.0072 11.096C63.7939 10.8933 63.5006 10.6747 63.1272 10.44C62.7539 10.1947 62.2846 9.97067 61.7192 9.768C61.1646 9.56533 60.4766 9.464 59.6552 9.464C58.8339 9.464 58.1086 9.58133 57.4792 9.816C56.8606 10.0507 56.3379 10.3707 55.9112 10.776C55.4952 11.1813 55.1752 11.6507 54.9512 12.184C54.7379 12.7173 54.6312 13.2773 54.6312 13.864C54.6312 14.632 54.7912 15.2667 55.1112 15.768C55.4419 16.2693 55.8739 16.696 56.4072 17.048C56.9406 17.4 57.5432 17.6987 58.2152 17.944C58.8979 18.1787 59.5966 18.4133 60.3112 18.648C61.0259 18.8827 61.7192 19.144 62.3912 19.432C63.0739 19.7093 63.6819 20.0613 64.2152 20.488C64.7486 20.9147 65.1752 21.4427 65.4952 22.072C65.8259 22.6907 65.9912 23.464 65.9912 24.392C65.9912 25.3413 65.8259 26.2373 65.4952 27.08C65.1752 27.912 64.7059 28.6373 64.0872 29.256C63.4686 29.8747 62.7112 30.3653 61.8152 30.728C60.9192 31.08 59.8952 31.256 58.7432 31.256C57.2499 31.256 55.9646 30.9947 54.8872 30.472C53.8099 29.9387 52.8659 29.2133 52.0552 28.296L52.5032 27.592C52.6312 27.432 52.7806 27.352 52.9512 27.352C53.0472 27.352 53.1699 27.416 53.3192 27.544C53.4686 27.672 53.6499 27.832 53.8632 28.024C54.0766 28.2053 54.3326 28.408 54.6312 28.632C54.9299 28.8453 55.2766 29.048 55.6712 29.24C56.0659 29.4213 56.5192 29.576 57.0312 29.704C57.5432 29.832 58.1246 29.896 58.7752 29.896C59.6712 29.896 60.4712 29.7627 61.1752 29.496C61.8792 29.2187 62.4712 28.8453 62.9512 28.376C63.4419 27.9067 63.8152 27.352 64.0712 26.712C64.3272 26.0613 64.4552 25.368 64.4552 24.632C64.4552 23.832 64.2899 23.176 63.9592 22.664C63.6392 22.1413 63.2126 21.7093 62.6792 21.368C62.1459 21.016 61.5379 20.7227 60.8552 20.488C60.1832 20.2533 59.4899 20.024 58.7752 19.8C58.0606 19.576 57.3619 19.3253 56.6792 19.048C56.0072 18.7707 55.4046 18.4187 54.8712 17.992C54.3379 17.5547 53.9059 17.016 53.5752 16.376C53.2552 15.7253 53.0952 14.9147 53.0952 13.944C53.0952 13.1867 53.2392 12.456 53.5272 11.752C53.8152 11.048 54.2366 10.4293 54.7912 9.896C55.3459 9.352 56.0286 8.92 56.8392 8.6C57.6606 8.26933 58.5939 8.104 59.6392 8.104C60.8126 8.104 61.8632 8.29067 62.7912 8.664C63.7299 9.03733 64.5832 9.608 65.3512 10.376L64.9672 11.112ZM73.0483 31H71.4003V8.36H73.0483V31Z" fill="#262626"/>
<path d="M95.8115 23.992C94.6702 24.0453 93.7102 24.1467 92.9315 24.296C92.1528 24.4347 91.5288 24.616 91.0595 24.84C90.5902 25.064 90.2542 25.3253 90.0515 25.624C89.8488 25.9227 89.7475 26.248 89.7475 26.6C89.7475 27.2933 89.9502 27.7893 90.3555 28.088C90.7715 28.3867 91.3102 28.536 91.9715 28.536C92.7822 28.536 93.4808 28.392 94.0675 28.104C94.6648 27.8053 95.2462 27.3573 95.8115 26.76V23.992ZM86.7555 16.872C88.6435 15.144 90.9155 14.28 93.5715 14.28C94.5315 14.28 95.3902 14.44 96.1475 14.76C96.9048 15.0693 97.5448 15.5067 98.0675 16.072C98.5902 16.6267 98.9848 17.2933 99.2515 18.072C99.5288 18.8507 99.6675 19.704 99.6675 20.632V31H97.8755C97.5022 31 97.2142 30.9467 97.0115 30.84C96.8088 30.7227 96.6488 30.4933 96.5315 30.152L96.1795 28.968C95.7635 29.3413 95.3582 29.672 94.9635 29.96C94.5688 30.2373 94.1582 30.472 93.7315 30.664C93.3048 30.856 92.8462 31 92.3555 31.096C91.8755 31.2027 91.3422 31.256 90.7555 31.256C90.0622 31.256 89.4222 31.1653 88.8355 30.984C88.2488 30.792 87.7422 30.5093 87.3155 30.136C86.8888 29.7627 86.5582 29.2987 86.3235 28.744C86.0888 28.1893 85.9715 27.544 85.9715 26.808C85.9715 26.392 86.0408 25.9813 86.1795 25.576C86.3182 25.16 86.5422 24.7653 86.8515 24.392C87.1715 24.0187 87.5822 23.6667 88.0835 23.336C88.5848 23.0053 89.1982 22.7173 89.9235 22.472C90.6595 22.2267 91.5128 22.0293 92.4835 21.88C93.4542 21.72 94.5635 21.624 95.8115 21.592V20.632C95.8115 19.5333 95.5768 18.7227 95.1075 18.2C94.6382 17.6667 93.9608 17.4 93.0755 17.4C92.4355 17.4 91.9022 17.4747 91.4755 17.624C91.0595 17.7733 90.6915 17.944 90.3715 18.136C90.0515 18.3173 89.7582 18.4827 89.4915 18.632C89.2355 18.7813 88.9475 18.856 88.6275 18.856C88.3502 18.856 88.1155 18.7867 87.9235 18.648C87.7315 18.4987 87.5768 18.328 87.4595 18.136L86.7555 16.872ZM107.418 17.432C107.93 16.4507 108.538 15.6827 109.242 15.128C109.946 14.5627 110.778 14.28 111.738 14.28C112.495 14.28 113.103 14.4453 113.562 14.776L113.306 17.736C113.252 17.928 113.172 18.0667 113.066 18.152C112.97 18.2267 112.836 18.264 112.666 18.264C112.506 18.264 112.266 18.2373 111.946 18.184C111.636 18.1307 111.332 18.104 111.034 18.104C110.596 18.104 110.207 18.168 109.866 18.296C109.524 18.424 109.215 18.6107 108.938 18.856C108.671 19.0907 108.431 19.3787 108.218 19.72C108.015 20.0613 107.823 20.4507 107.642 20.888V31H103.69V14.584H106.01C106.415 14.584 106.698 14.6587 106.858 14.808C107.018 14.9467 107.124 15.2027 107.178 15.576L107.418 17.432ZM125.793 18.776C125.356 18.232 124.871 17.848 124.337 17.624C123.804 17.4 123.233 17.288 122.625 17.288C122.028 17.288 121.489 17.4 121.009 17.624C120.529 17.848 120.119 18.1893 119.777 18.648C119.436 19.096 119.175 19.672 118.993 20.376C118.812 21.0693 118.721 21.8907 118.721 22.84C118.721 23.8 118.796 24.616 118.945 25.288C119.105 25.9493 119.329 26.4933 119.617 26.92C119.905 27.336 120.257 27.64 120.673 27.832C121.089 28.0133 121.553 28.104 122.065 28.104C122.887 28.104 123.585 27.9333 124.161 27.592C124.737 27.2507 125.281 26.7653 125.793 26.136V18.776ZM129.745 14.584V36.36H125.793V28.92C125.143 29.6133 124.407 30.1733 123.585 30.6C122.764 31.0267 121.809 31.24 120.721 31.24C119.825 31.24 119.004 31.0533 118.257 30.68C117.511 30.3067 116.865 29.768 116.321 29.064C115.788 28.3493 115.372 27.4693 115.073 26.424C114.785 25.3787 114.641 24.184 114.641 22.84C114.641 21.624 114.807 20.4933 115.137 19.448C115.468 18.4027 115.943 17.496 116.561 16.728C117.18 15.96 117.921 15.3627 118.785 14.936C119.649 14.4987 120.62 14.28 121.697 14.28C122.721 14.28 123.58 14.456 124.273 14.808C124.967 15.16 125.585 15.6347 126.129 16.232L126.337 15.304C126.476 14.824 126.807 14.584 127.329 14.584H129.745Z" fill="#FF1053"/>
</svg>
