<svg width="60" height="60" viewBox="0 0 60 60" fill="none" xmlns="http://www.w3.org/2000/svg">
<path fill-rule="evenodd" clip-rule="evenodd" d="M56.1798 11.9316H50.7745V3.81408C50.7745 3.21408 50.2856 2.72754 49.6824 2.72754H3.81864C3.21547 2.72754 2.72656 3.21408 2.72656 3.81408V21.8332C2.72656 22.4332 3.21547 22.9197 3.81864 22.9197H49.6823C50.2855 22.9197 50.7744 22.4332 50.7744 21.8332V14.1047H55.0877V27.4039L26.56 32.4305C26.0384 32.5224 25.6584 32.9734 25.6584 33.5004V38.1177H23.7538C23.1507 38.1177 22.6618 38.6042 22.6618 39.2042V53.2049C22.6618 55.4481 24.4961 57.273 26.7506 57.273C29.0052 57.273 30.8395 55.448 30.8395 53.2049V39.2044C30.8395 38.6043 30.3506 38.1178 29.7474 38.1178H27.8428V34.4116L56.3704 29.3851C56.892 29.2931 57.272 28.8422 57.272 28.3152V13.0182C57.2719 12.4182 56.7829 11.9316 56.1798 11.9316ZM4.90894 20.7474V17.4759H38.067C38.6702 17.4759 39.1591 16.9894 39.1591 16.3894C39.1591 15.7894 38.6702 15.3029 38.067 15.3029H4.90894V4.90127H48.5884V20.7474H4.90894ZM28.6631 53.2031V40.289H24.8539V53.2031C24.8539 54.2479 25.7081 55.098 26.7584 55.098C27.8086 55.098 28.6631 54.248 28.6631 53.2031Z" fill="#FF1053"/>
</svg>
