<svg width="15" height="14" viewBox="0 0 15 14" fill="none" xmlns="http://www.w3.org/2000/svg">
<path d="M13.9154 1.75001C13.3568 2.14403 12.7383 2.4454 12.0837 2.64251C11.7324 2.23855 11.2655 1.95224 10.7461 1.8223C10.2268 1.69235 9.68007 1.72504 9.17991 1.91594C8.67975 2.10684 8.25029 2.44674 7.9496 2.88967C7.64892 3.33261 7.49152 3.8572 7.4987 4.39251V4.97584C6.47357 5.00242 5.45777 4.77506 4.54179 4.31402C3.6258 3.85297 2.83805 3.17254 2.2487 2.33334C2.2487 2.33334 -0.0846354 7.58334 5.16536 9.91667C3.96401 10.7322 2.53287 11.141 1.08203 11.0833C6.33203 14 12.7487 11.0833 12.7487 4.37501C12.7482 4.21252 12.7325 4.05044 12.702 3.89084C13.2974 3.30371 13.7175 2.56242 13.9154 1.75001V1.75001Z" fill="white"/>
</svg>
