<svg width="60" height="60" viewBox="0 0 60 60" fill="none" xmlns="http://www.w3.org/2000/svg">
<path fill-rule="evenodd" clip-rule="evenodd" d="M44.052 28.9137H56.1855C56.7856 28.9137 57.272 29.4003 57.272 30.0003V56.1865C57.272 56.7864 56.7856 57.273 56.1855 57.273H3.8131C3.213 57.273 2.72656 56.7864 2.72656 56.1865V3.81408C2.72656 3.21408 3.213 2.72754 3.8131 2.72754H30.0355C30.6356 2.72754 31.1221 3.21408 31.1221 3.81408V15.9836H42.9654C43.5656 15.9836 44.052 16.4701 44.052 17.0701V28.9137ZM41.8808 28.913V18.1561H18.1214V28.913H41.8808ZM4.90057 4.90057H28.9498V15.9835H4.90057V4.90057ZM15.9473 18.1561H4.90057V28.913H15.9473V18.1561ZM4.90057 31.0866H28.9498V41.916H4.90057V31.0866ZM4.90057 44.0891V55.0996H15.9473V44.0891H4.90057ZM18.1214 55.0996V44.0891H41.8809V55.0996H18.1214ZM44.0486 55.0998H55.0955V31.0866H31.1186V41.9162H47.5982C48.1983 41.9162 48.6847 42.4027 48.6847 43.0027C48.6847 43.6027 48.1983 44.0892 47.5982 44.0892H44.0486V55.0998Z" fill="#FF1053"/>
</svg>
